# xmcd
#
# Track frame offsets:
#	150
#	17002
#	29034
#	41952
#	59049
#	79521
#	90361
#	104579
#	116793
#	131115
#
# Disc length: 1886 seconds
#
# Revision: 1
# Processed by: cddbd v1.5.1PL0 Copyright (c) Steve Scherf et al.
# Submitted via: EasyCDDAExtractor 7.0.6.1
#
DISCID=8c075c0a
DTITLE=Lampkins Family - Standing On the Running Board
DYEAR=2003
DGENRE=Bluegrass
TTITLE0=I'd Like to be a Train
TTITLE1=Brand New Heartache
TTITLE2=Rebecca
TTITLE3=I Wish You Knew
TTITLE4=3/4 Time
TTITLE5=Wheel Hoss
TTITLE6=Love, Please Come Home
TTITLE7=I'm Moving
TTITLE8=Huckleberry Hornpipe
TTITLE9=Hallelujah, I'm Ready
EXTD=
EXTT0=
EXTT1=
EXTT2=
EXTT3=
EXTT4=
EXTT5=
EXTT6=
EXTT7=
EXTT8=
EXTT9=
PLAYORDER=
